# xmcd CD database file generated by Grip 3.3.1
# 
# Track frame offsets:
#       150
#       14600
#       29357
#       37772
#       47119
#       58863
#       77409
#       90393
#       99098
#       113142
#       125790
#       142114
#       156527
#       167336
#       178648
# 
# Disc length: 2576 seconds
# 
# Revision: 0
# Processed by: cddbd v1.5.2PL0 Copyright (c) Steve Scherf et al.
# Submitted via: Grip 3.3.1
# 
DISCID=bd0a0e0f
DTITLE=The Foggy Hogtown Boys - The Golden West
DYEAR=2008
DGENRE=Bluegrass
TTITLE0=The Golden West
TTITLE1=I'll Break Out Again Tonight
TTITLE2=Come on Home
TTITLE3=Red Rocking Chair
TTITLE4=North Carolina Breakdown/Pigtown Fling
TTITLE5=A Place to Call Home
TTITLE6=Straighten the Curves
TTITLE7=Don't Give Up on Me
TTITLE8=Who's That Knocking at My Door
TTITLE9=Midnight Special
TTITLE10=It's Hard to Keep on Standing
TTITLE11=The Dry Nurse
TTITLE12=Get In Line Brother
TTITLE13=Coming into Hard Times Blues
TTITLE14=Life's Treasures
EXTD=
EXTT0=
EXTT1=
EXTT2=
EXTT3=
EXTT4=
EXTT5=
EXTT6=
EXTT7=
EXTT8=
EXTT9=
EXTT10=
EXTT11=
EXTT12=
EXTT13=
EXTT14=
PLAYORDER=
